<svg width="1600" height="1000" viewBox="0 0 1600 1000" fill="none" xmlns="http://www.w3.org/2000/svg">
  <defs>
    <linearGradient id="bg" x1="0" y1="0" x2="1600" y2="1000" gradientUnits="userSpaceOnUse">
      <stop stop-color="#0E1126"/>
      <stop offset="0.55" stop-color="#11173A"/>
      <stop offset="1" stop-color="#090B18"/>
    </linearGradient>
    <radialGradient id="lime" cx="0" cy="0" r="1" gradientUnits="userSpaceOnUse" gradientTransform="translate(420 260) rotate(25) scale(560 460)">
      <stop stop-color="#53FF8E" stop-opacity="0.35"/>
      <stop offset="1" stop-color="#53FF8E" stop-opacity="0"/>
    </radialGradient>
    <radialGradient id="cyan" cx="0" cy="0" r="1" gradientUnits="userSpaceOnUse" gradientTransform="translate(1180 240) rotate(8) scale(620 500)">
      <stop stop-color="#4CD7FF" stop-opacity="0.26"/>
      <stop offset="1" stop-color="#4CD7FF" stop-opacity="0"/>
    </radialGradient>
    <radialGradient id="magenta" cx="0" cy="0" r="1" gradientUnits="userSpaceOnUse" gradientTransform="translate(1040 820) rotate(-15) scale(720 560)">
      <stop stop-color="#FF5AE7" stop-opacity="0.20"/>
      <stop offset="1" stop-color="#FF5AE7" stop-opacity="0"/>
    </radialGradient>
    <pattern id="grid" width="48" height="48" patternUnits="userSpaceOnUse">
      <path d="M48 0H0V48" stroke="white" stroke-opacity="0.06" stroke-width="1"/>
      <circle cx="12" cy="12" r="1.5" fill="white" fill-opacity="0.07"/>
    </pattern>
    <filter id="grain" x="-20%" y="-20%" width="140%" height="140%">
      <feTurbulence type="fractalNoise" baseFrequency="0.8" numOctaves="2" stitchTiles="stitch"/>
      <feColorMatrix type="matrix" values="1 0 0 0 0  0 1 0 0 0  0 0 1 0 0  0 0 0 .10 0"/>
      <feBlend mode="soft-light" in2="SourceGraphic"/>
    </filter>
    <filter id="soft" x="-20%" y="-20%" width="140%" height="140%">
      <feGaussianBlur stdDeviation="12" result="b"/>
      <feColorMatrix in="b" type="matrix" values="1 0 0 0 0  0 1 0 0 0  0 0 1 0 0  0 0 0 .25 0"/>
      <feMerge>
        <feMergeNode/>
        <feMergeNode in="SourceGraphic"/>
      </feMerge>
    </filter>
  </defs>

  <rect width="1600" height="1000" rx="56" fill="url(#bg)"/>
  <rect width="1600" height="1000" rx="56" fill="url(#lime)"/>
  <rect width="1600" height="1000" rx="56" fill="url(#cyan)"/>
  <rect width="1600" height="1000" rx="56" fill="url(#magenta)"/>
  <rect width="1600" height="1000" rx="56" fill="url(#grid)"/>

  <g filter="url(#grain)">
    <path d="M140 240c180-120 330-120 450 0s270 120 450 0 330-120 450 0" stroke="white" stroke-opacity="0.12" stroke-width="20" stroke-linecap="round"/>
    <path d="M140 520c180-120 330-120 450 0s270 120 450 0 330-120 450 0" stroke="white" stroke-opacity="0.10" stroke-width="16" stroke-linecap="round"/>
    <path d="M140 760c180-120 330-120 450 0s270 120 450 0 330-120 450 0" stroke="white" stroke-opacity="0.08" stroke-width="12" stroke-linecap="round"/>
  </g>

  <g filter="url(#soft)" opacity="0.95">
    <rect x="240" y="210" width="22" height="22" rx="5" fill="#53FF8E" fill-opacity="0.75"/>
    <rect x="262" y="188" width="22" height="22" rx="5" fill="#53FF8E" fill-opacity="0.75"/>
    <rect x="284" y="176" width="22" height="22" rx="5" fill="#4CD7FF" fill-opacity="0.75"/>
    <rect x="306" y="188" width="22" height="22" rx="5" fill="#4CD7FF" fill-opacity="0.75"/>
    <rect x="328" y="210" width="22" height="22" rx="5" fill="#FF5AE7" fill-opacity="0.65"/>
    <rect x="262" y="232" width="22" height="22" rx="5" fill="#4CD7FF" fill-opacity="0.75"/>
    <rect x="284" y="232" width="22" height="22" rx="5" fill="#4CD7FF" fill-opacity="0.75"/>
    <rect x="306" y="232" width="22" height="22" rx="5" fill="#53FF8E" fill-opacity="0.75"/>
  </g>

  <g opacity="0.92">
    <circle cx="260" cy="190" r="14" fill="#53FF8E"/>
    <circle cx="1320" cy="190" r="14" fill="#4CD7FF"/>
    <circle cx="1320" cy="810" r="14" fill="#FF5AE7"/>
    <circle cx="260" cy="810" r="14" fill="#53FF8E" fill-opacity="0.7"/>
  </g>
</svg>
