<svg width="512" height="512" viewBox="0 0 512 512" fill="none" xmlns="http://www.w3.org/2000/svg">
  <defs>
    <linearGradient id="g" x1="46" y1="66" x2="466" y2="446" gradientUnits="userSpaceOnUse">
      <stop stop-color="#53FF8E"/>
      <stop offset="0.52" stop-color="#4CD7FF"/>
      <stop offset="1" stop-color="#FF5AE7"/>
    </linearGradient>
    <radialGradient id="glow" cx="0" cy="0" r="1" gradientUnits="userSpaceOnUse" gradientTransform="translate(160 150) rotate(18) scale(220 210)">
      <stop stop-color="white" stop-opacity="0.26"/>
      <stop offset="1" stop-color="white" stop-opacity="0"/>
    </radialGradient>
    <filter id="grain" x="-20%" y="-20%" width="140%" height="140%">
      <feTurbulence type="fractalNoise" baseFrequency="0.85" numOctaves="2" stitchTiles="stitch"/>
      <feColorMatrix type="matrix" values="1 0 0 0 0  0 1 0 0 0  0 0 1 0 0  0 0 0 .12 0"/>
      <feBlend mode="soft-light" in2="SourceGraphic"/>
    </filter>
    <filter id="soft" x="-20%" y="-20%" width="140%" height="140%">
      <feGaussianBlur stdDeviation="10" result="b"/>
      <feColorMatrix in="b" type="matrix" values="1 0 0 0 0  0 1 0 0 0  0 0 1 0 0  0 0 0 .28 0"/>
      <feMerge>
        <feMergeNode/>
        <feMergeNode in="SourceGraphic"/>
      </feMerge>
    </filter>
  </defs>

  <rect x="0" y="0" width="512" height="512" rx="256" fill="url(#g)"/>
  <rect x="0" y="0" width="512" height="512" rx="256" fill="url(#glow)"/>

  <g filter="url(#grain)">
    <path d="M92 258c52-60 112-84 180-72 68 12 112 48 132 108" stroke="white" stroke-opacity="0.10" stroke-width="18" stroke-linecap="round"/>
    <path d="M92 312c52-60 112-84 180-72 68 12 112 48 132 108" stroke="black" stroke-opacity="0.10" stroke-width="18" stroke-linecap="round"/>
  </g>

  <g filter="url(#soft)">
    <rect x="150" y="196" width="22" height="22" rx="5" fill="#10132B" fill-opacity="0.92"/>
    <rect x="172" y="174" width="22" height="22" rx="5" fill="#10132B" fill-opacity="0.92"/>
    <rect x="194" y="162" width="22" height="22" rx="5" fill="#10132B" fill-opacity="0.92"/>
    <rect x="216" y="174" width="22" height="22" rx="5" fill="#10132B" fill-opacity="0.92"/>
    <rect x="238" y="196" width="22" height="22" rx="5" fill="#10132B" fill-opacity="0.92"/>
    <rect x="172" y="218" width="22" height="22" rx="5" fill="#10132B" fill-opacity="0.92"/>
    <rect x="194" y="218" width="22" height="22" rx="5" fill="#10132B" fill-opacity="0.92"/>
    <rect x="216" y="218" width="22" height="22" rx="5" fill="#10132B" fill-opacity="0.92"/>
  </g>

  <path d="M285 170h52c57 0 95 33 95 86s-38 86-95 86h-52V170Zm51 130c36 0 56-16 56-44s-20-44-56-44h-13v88h13Z" fill="#10132B" fill-opacity="0.92"/>
</svg>
